<svg width="23" height="19" viewBox="0 0 23 19" fill="none" xmlns="http://www.w3.org/2000/svg">
<path d="M5.66663 8.5V12.5M17.6666 6.5V10.5M16.6666 1.5C19.1153 1.5 20.4398 1.87476 21.0987 2.16544C21.1865 2.20415 21.2304 2.22351 21.357 2.34437C21.4329 2.41682 21.5715 2.62939 21.6072 2.72809C21.6666 2.89274 21.6666 2.98274 21.6666 3.16274V13.9111C21.6666 14.8199 21.6666 15.2743 21.5303 15.5079C21.3917 15.7454 21.258 15.8559 20.9986 15.9472C20.7435 16.0369 20.2286 15.938 19.1988 15.7401C18.478 15.6017 17.6231 15.5 16.6666 15.5C13.6666 15.5 10.6666 17.5 6.66663 17.5C4.21792 17.5 2.89349 17.1252 2.23451 16.8346C2.14675 16.7958 2.10287 16.7765 1.97623 16.6556C1.90031 16.5832 1.76174 16.3706 1.7261 16.2719C1.66663 16.1073 1.66663 16.0173 1.66663 15.8373L1.66663 5.08885C1.66663 4.18009 1.66663 3.7257 1.8029 3.49214C1.94153 3.25456 2.07522 3.14412 2.33469 3.05281C2.58976 2.96305 3.10466 3.06198 4.13445 3.25985C4.85524 3.39834 5.71011 3.5 6.66663 3.5C9.66663 3.5 12.6666 1.5 16.6666 1.5ZM14.1666 9.5C14.1666 10.8807 13.0473 12 11.6666 12C10.2859 12 9.16663 10.8807 9.16663 9.5C9.16663 8.11929 10.2859 7 11.6666 7C13.0473 7 14.1666 8.11929 14.1666 9.5Z" stroke="white" stroke-width="1.5" stroke-linecap="round" stroke-linejoin="round"/>
</svg>
