<svg width="26" height="26" viewBox="0 0 26 26" fill="none" xmlns="http://www.w3.org/2000/svg">
<path d="M7.66663 14.25V19.25M17.6666 11.75V19.25M12.6666 6.75V19.25M7.41663 24.25H17.9166C20.0168 24.25 21.0669 24.25 21.8691 23.8413C22.5747 23.4817 23.1484 22.9081 23.5079 22.2025C23.9166 21.4003 23.9166 20.3502 23.9166 18.25V7.75C23.9166 5.6498 23.9166 4.5997 23.5079 3.79754C23.1484 3.09193 22.5747 2.51825 21.8691 2.15873C21.0669 1.75 20.0168 1.75 17.9166 1.75H7.41663C5.31643 1.75 4.26633 1.75 3.46416 2.15873C2.75855 2.51825 2.18488 3.09193 1.82535 3.79754C1.41663 4.5997 1.41663 5.6498 1.41663 7.75V18.25C1.41663 20.3502 1.41663 21.4003 1.82535 22.2025C2.18488 22.9081 2.75855 23.4817 3.46416 23.8413C4.26633 24.25 5.31643 24.25 7.41663 24.25Z" stroke="white" stroke-width="2.5" stroke-linecap="round" stroke-linejoin="round"/>
</svg>
