<svg width="22" height="19" viewBox="0 0 22 19" fill="none" xmlns="http://www.w3.org/2000/svg">
<path d="M18.6666 18V11M10.6666 18V8M2.66663 18L2.66663 14M12.0733 3.0275L17.2417 4.96567M9.4654 3.40092L3.86685 7.59983M19.7273 4.43934C20.3131 5.02513 20.3131 5.97487 19.7273 6.56066C19.1415 7.14645 18.1918 7.14645 17.606 6.56066C17.0202 5.97487 17.0202 5.02513 17.606 4.43934C18.1918 3.85355 19.1415 3.85355 19.7273 4.43934ZM3.72729 7.43934C4.31307 8.02513 4.31307 8.97487 3.72729 9.56066C3.1415 10.1464 2.19175 10.1464 1.60597 9.56066C1.02018 8.97487 1.02018 8.02513 1.60597 7.43934C2.19175 6.85355 3.1415 6.85355 3.72729 7.43934ZM11.7273 1.43934C12.3131 2.02513 12.3131 2.97487 11.7273 3.56066C11.1415 4.14645 10.1918 4.14645 9.60597 3.56066C9.02018 2.97487 9.02018 2.02513 9.60597 1.43934C10.1918 0.853553 11.1415 0.853553 11.7273 1.43934Z" stroke="white" stroke-width="2" stroke-linecap="round" stroke-linejoin="round"/>
</svg>
