<svg width="23" height="16" viewBox="0 0 23 16" fill="none" xmlns="http://www.w3.org/2000/svg">
<path d="M9.66663 3L2.66663 3M20.6666 3L13.6666 3M13.6666 3.25195C17.1171 4.14004 19.6666 7.27224 19.6666 10.9999M3.66663 10.9999C3.66663 7.27224 6.21617 4.14004 9.66663 3.25195M3.26663 15H4.06663C4.62668 15 4.9067 15 5.12062 14.891C5.30878 14.7951 5.46176 14.6422 5.55763 14.454C5.66663 14.2401 5.66663 13.9601 5.66663 13.4V12.6C5.66663 12.0399 5.66663 11.7599 5.55763 11.546C5.46176 11.3578 5.30878 11.2049 5.12062 11.109C4.9067 11 4.62668 11 4.06663 11H3.26663C2.70657 11 2.42655 11 2.21264 11.109C2.02447 11.2049 1.87149 11.3578 1.77562 11.546C1.66663 11.7599 1.66663 12.0399 1.66663 12.6V13.4C1.66663 13.9601 1.66663 14.2401 1.77562 14.454C1.87149 14.6422 2.02447 14.7951 2.21264 14.891C2.42655 15 2.70657 15 3.26663 15ZM11.2666 5H12.0666C12.6267 5 12.9067 5 13.1206 4.89101C13.3088 4.79513 13.4618 4.64215 13.5576 4.45399C13.6666 4.24008 13.6666 3.96005 13.6666 3.4V2.6C13.6666 2.03995 13.6666 1.75992 13.5576 1.54601C13.4618 1.35785 13.3088 1.20487 13.1206 1.10899C12.9067 1 12.6267 1 12.0666 1H11.2666C10.7066 1 10.4265 1 10.2126 1.10899C10.0245 1.20487 9.87149 1.35785 9.77562 1.54601C9.66663 1.75992 9.66663 2.03995 9.66663 2.6V3.4C9.66663 3.96005 9.66663 4.24008 9.77562 4.45399C9.87149 4.64215 10.0245 4.79513 10.2126 4.89101C10.4265 5 10.7066 5 11.2666 5ZM19.2666 15H20.0666C20.6267 15 20.9067 15 21.1206 14.891C21.3088 14.7951 21.4618 14.6422 21.5576 14.454C21.6666 14.2401 21.6666 13.9601 21.6666 13.4V12.6C21.6666 12.0399 21.6666 11.7599 21.5576 11.546C21.4618 11.3578 21.3088 11.2049 21.1206 11.109C20.9067 11 20.6267 11 20.0666 11H19.2666C18.7066 11 18.4265 11 18.2126 11.109C18.0245 11.2049 17.8715 11.3578 17.7756 11.546C17.6666 11.7599 17.6666 12.0399 17.6666 12.6V13.4C17.6666 13.9601 17.6666 14.2401 17.7756 14.454C17.8715 14.6422 18.0245 14.7951 18.2126 14.891C18.4265 15 18.7066 15 19.2666 15ZM21.6666 3C21.6666 3.55228 21.2189 4 20.6666 4C20.1143 4 19.6666 3.55228 19.6666 3C19.6666 2.44772 20.1143 2 20.6666 2C21.2189 2 21.6666 2.44772 21.6666 3ZM3.66663 3C3.66663 3.55228 3.21891 4 2.66663 4C2.11434 4 1.66663 3.55228 1.66663 3C1.66663 2.44772 2.11434 2 2.66663 2C3.21891 2 3.66663 2.44772 3.66663 3Z" stroke="white" stroke-width="2" stroke-linecap="round" stroke-linejoin="round"/>
</svg>
