<svg width="23" height="23" viewBox="0 0 23 23" fill="none" xmlns="http://www.w3.org/2000/svg">
<path d="M8.66663 11.1475L10.6666 13.1475L15.1666 8.64746M8.86853 19.7483C9.19628 19.705 9.52736 19.7939 9.78845 19.995L10.9917 20.9183C11.3894 21.2238 11.9427 21.2238 12.3393 20.9183L13.5881 19.9594C13.8214 19.7806 14.1159 19.7017 14.407 19.7406L15.969 19.9461C16.4657 20.0117 16.9445 19.735 17.1367 19.2717L17.7378 17.8184C17.85 17.5462 18.0655 17.3306 18.3377 17.2184L19.7909 16.6173C20.2542 16.4262 20.5309 15.9462 20.4653 15.4496L20.2676 13.9441C20.2242 13.6163 20.3131 13.2852 20.5142 13.0241L21.4375 11.8208C21.743 11.423 21.743 10.8697 21.4375 10.473L20.4787 9.22418C20.2998 8.99085 20.2209 8.69642 20.2598 8.40531L20.4653 6.84314C20.5309 6.34648 20.2542 5.86761 19.7909 5.67539L18.3377 5.0743C18.0655 4.96208 17.85 4.74653 17.7378 4.47431L17.1367 3.02102C16.9456 2.5577 16.4657 2.28104 15.969 2.34659L14.407 2.55214C14.1159 2.59214 13.8214 2.51326 13.5892 2.33548L12.3405 1.37662C11.9427 1.07107 11.3894 1.07107 10.9928 1.37662L9.74401 2.33548C9.5107 2.51326 9.21627 2.59214 8.92519 2.55437L7.3631 2.34882C6.86647 2.28326 6.38762 2.55992 6.19542 3.02324L5.59546 4.47653C5.48214 4.74764 5.2666 4.96319 4.99551 5.07652L3.5423 5.6765C3.07901 5.86872 2.80236 6.34759 2.86791 6.84425L3.07345 8.40643C3.11123 8.69753 3.03235 8.99197 2.85458 9.22418L1.89577 10.473C1.59024 10.8708 1.59024 11.4241 1.89577 11.8208L2.85458 13.0696C3.03346 13.303 3.11234 13.5974 3.07345 13.8885L2.86791 15.4507C2.80236 15.9473 3.07901 16.4262 3.5423 16.6184L4.99551 17.2195C5.26771 17.3317 5.48325 17.5473 5.59546 17.8195L6.19653 19.2728C6.38762 19.7361 6.86758 20.0128 7.36421 19.9472L8.86853 19.7483Z" stroke="white" stroke-width="2" stroke-linecap="round" stroke-linejoin="round"/>
</svg>
