<svg width="23" height="22" viewBox="0 0 23 22" fill="none" xmlns="http://www.w3.org/2000/svg">
<path d="M5.66663 5L7.66663 3M7.66663 3L5.66663 1M7.66663 3H5.66663C3.45749 3 1.66663 4.79086 1.66663 7M17.6666 17L15.6666 19M15.6666 19L17.6666 21M15.6666 19H17.6666C19.8758 19 21.6666 17.2091 21.6666 15M9.85565 5.5C10.5217 2.91216 12.8709 1 15.6666 1C18.9803 1 21.6666 3.68629 21.6666 7C21.6666 9.79574 19.7545 12.1449 17.1667 12.811M13.6666 15C13.6666 18.3137 10.9803 21 7.66663 21C4.35292 21 1.66663 18.3137 1.66663 15C1.66663 11.6863 4.35292 9 7.66663 9C10.9803 9 13.6666 11.6863 13.6666 15Z" stroke="white" stroke-width="2" stroke-linecap="round" stroke-linejoin="round"/>
</svg>
