<svg width="28" height="28" viewBox="0 0 28 28" fill="none" xmlns="http://www.w3.org/2000/svg">
<path d="M4 21.5V21.25C4 19.1498 4 18.0997 4.40873 17.2975C4.76825 16.5919 5.34193 16.0183 6.04754 15.6587C6.8497 15.25 7.8998 15.25 10 15.25H18C20.1002 15.25 21.1503 15.25 21.9525 15.6587C22.6581 16.0183 23.2317 16.5919 23.5913 17.2975C24 18.0997 24 19.1498 24 21.25V21.5M4 21.5C2.61929 21.5 1.5 22.6193 1.5 24C1.5 25.3807 2.61929 26.5 4 26.5C5.38071 26.5 6.5 25.3807 6.5 24C6.5 22.6193 5.38071 21.5 4 21.5ZM24 21.5C22.6193 21.5 21.5 22.6193 21.5 24C21.5 25.3807 22.6193 26.5 24 26.5C25.3807 26.5 26.5 25.3807 26.5 24C26.5 22.6193 25.3807 21.5 24 21.5ZM14 21.5C12.6193 21.5 11.5 22.6193 11.5 24C11.5 25.3807 12.6193 26.5 14 26.5C15.3807 26.5 16.5 25.3807 16.5 24C16.5 22.6193 15.3807 21.5 14 21.5ZM14 21.5V9M6.5 9H21.5C22.6649 9 23.2473 9 23.7067 8.8097C24.3193 8.55596 24.806 8.06928 25.0597 7.45671C25.25 6.99728 25.25 6.41485 25.25 5.25C25.25 4.08515 25.25 3.50272 25.0597 3.04329C24.806 2.43072 24.3193 1.94404 23.7067 1.6903C23.2473 1.5 22.6649 1.5 21.5 1.5H6.5C5.33515 1.5 4.75272 1.5 4.29329 1.6903C3.68072 1.94404 3.19404 2.43072 2.9403 3.04329C2.75 3.50272 2.75 4.08515 2.75 5.25C2.75 6.41485 2.75 6.99728 2.9403 7.45671C3.19404 8.06928 3.68072 8.55596 4.29329 8.8097C4.75272 9 5.33515 9 6.5 9Z" stroke="white" stroke-width="2.5" stroke-linecap="round" stroke-linejoin="round"/>
</svg>
