<svg width="23" height="23" viewBox="0 0 23 23" fill="none" xmlns="http://www.w3.org/2000/svg">
<path d="M20.8666 21.8726C21.1467 21.8726 21.2867 21.8726 21.3936 21.8181C21.4877 21.7701 21.5642 21.6936 21.6121 21.5996C21.6666 21.4926 21.6666 21.3526 21.6666 21.0726V10.6726C21.6666 10.3925 21.6666 10.2525 21.6121 10.1456C21.5642 10.0515 21.4877 9.97499 21.3936 9.92706C21.2867 9.87256 21.1467 9.87256 20.8666 9.87256L18.4666 9.87256C18.1866 9.87256 18.0466 9.87256 17.9396 9.92706C17.8455 9.97499 17.7691 10.0515 17.7211 10.1456C17.6666 10.2525 17.6666 10.3925 17.6666 10.6726V13.0726C17.6666 13.3526 17.6666 13.4926 17.6121 13.5996C17.5642 13.6936 17.4877 13.7701 17.3936 13.8181C17.2867 13.8726 17.1467 13.8726 16.8666 13.8726H14.4666C14.1866 13.8726 14.0466 13.8726 13.9396 13.9271C13.8455 13.975 13.7691 14.0515 13.7211 14.1456C13.6666 14.2525 13.6666 14.3925 13.6666 14.6726V17.0726C13.6666 17.3526 13.6666 17.4926 13.6121 17.5996C13.5642 17.6936 13.4877 17.7701 13.3936 17.8181C13.2867 17.8726 13.1467 17.8726 12.8666 17.8726H10.4666C10.1866 17.8726 10.0466 17.8726 9.93963 17.9271C9.84555 17.975 9.76906 18.0515 9.72112 18.1456C9.66663 18.2525 9.66663 18.3925 9.66663 18.6726V21.0726C9.66663 21.3526 9.66663 21.4926 9.72112 21.5996C9.76906 21.6936 9.84555 21.7701 9.93963 21.8181C10.0466 21.8726 10.1866 21.8726 10.4666 21.8726L20.8666 21.8726Z" stroke="white" stroke-width="2" stroke-linecap="round" stroke-linejoin="round"/>
<path d="M9.66663 6.67256C9.66663 6.39253 9.66663 6.25252 9.72112 6.14556C9.76906 6.05148 9.84555 5.97499 9.93963 5.92706C10.0466 5.87256 10.1866 5.87256 10.4666 5.87256H12.8666C13.1467 5.87256 13.2867 5.87256 13.3936 5.92706C13.4877 5.97499 13.5642 6.05148 13.6121 6.14556C13.6666 6.25252 13.6666 6.39253 13.6666 6.67256V9.07256C13.6666 9.35258 13.6666 9.4926 13.6121 9.59955C13.5642 9.69364 13.4877 9.77013 13.3936 9.81806C13.2867 9.87256 13.1467 9.87256 12.8666 9.87256H10.4666C10.1866 9.87256 10.0466 9.87256 9.93963 9.81806C9.84555 9.77013 9.76906 9.69364 9.72112 9.59955C9.66663 9.4926 9.66663 9.35258 9.66663 9.07256V6.67256Z" stroke="white" stroke-width="2" stroke-linecap="round" stroke-linejoin="round"/>
<path d="M2.66663 12.6726C2.66663 12.3925 2.66663 12.2525 2.72112 12.1456C2.76906 12.0515 2.84555 11.975 2.93963 11.9271C3.04659 11.8726 3.1866 11.8726 3.46663 11.8726H5.86663C6.14665 11.8726 6.28667 11.8726 6.39362 11.9271C6.4877 11.975 6.56419 12.0515 6.61213 12.1456C6.66663 12.2525 6.66663 12.3925 6.66663 12.6726V15.0726C6.66663 15.3526 6.66663 15.4926 6.61213 15.5996C6.56419 15.6936 6.4877 15.7701 6.39362 15.8181C6.28667 15.8726 6.14665 15.8726 5.86663 15.8726H3.46663C3.1866 15.8726 3.04659 15.8726 2.93963 15.8181C2.84555 15.7701 2.76906 15.6936 2.72112 15.5996C2.66663 15.4926 2.66663 15.3526 2.66663 15.0726V12.6726Z" stroke="white" stroke-width="2" stroke-linecap="round" stroke-linejoin="round"/>
<path d="M1.66663 2.67256C1.66663 2.39253 1.66663 2.25252 1.72112 2.14556C1.76906 2.05148 1.84555 1.97499 1.93963 1.92706C2.04659 1.87256 2.1866 1.87256 2.46663 1.87256H4.86663C5.14665 1.87256 5.28667 1.87256 5.39362 1.92706C5.4877 1.97499 5.56419 2.05148 5.61213 2.14556C5.66663 2.25252 5.66663 2.39253 5.66663 2.67256V5.07256C5.66663 5.35258 5.66663 5.4926 5.61213 5.59955C5.56419 5.69363 5.4877 5.77013 5.39362 5.81806C5.28667 5.87256 5.14665 5.87256 4.86663 5.87256H2.46663C2.1866 5.87256 2.04659 5.87256 1.93963 5.81806C1.84555 5.77013 1.76906 5.69363 1.72112 5.59955C1.66663 5.4926 1.66663 5.35258 1.66663 5.07256V2.67256Z" stroke="white" stroke-width="2" stroke-linecap="round" stroke-linejoin="round"/>
</svg>
