<svg width="23" height="22" viewBox="0 0 23 22" fill="none" xmlns="http://www.w3.org/2000/svg">
<path d="M5.76099 10.2288C5.69883 9.82823 5.66659 9.41786 5.66659 9C5.66659 4.58172 9.27187 1 13.7192 1C18.1666 1 21.7719 4.58172 21.7719 9C21.7719 9.99807 21.5879 10.9535 21.2518 11.8345C21.182 12.0175 21.1471 12.109 21.1312 12.1804C21.1155 12.2512 21.1095 12.301 21.1078 12.3735C21.106 12.4466 21.116 12.5272 21.1358 12.6883L21.5384 15.9585C21.582 16.3125 21.6037 16.4895 21.5449 16.6182C21.4933 16.731 21.4016 16.8205 21.2877 16.8695C21.1577 16.9254 20.9813 16.8995 20.6283 16.8478L17.4431 16.3809C17.2768 16.3565 17.1936 16.3443 17.1179 16.3448C17.0429 16.3452 16.9911 16.3507 16.9178 16.3661C16.8437 16.3817 16.749 16.4172 16.5596 16.4881C15.6763 16.819 14.719 17 13.7192 17C13.301 17 12.8903 16.9683 12.4893 16.9073M7.2982 21C10.2631 21 12.6666 18.5376 12.6666 15.5C12.6666 12.4624 10.2631 10 7.2982 10C4.33331 10 1.92978 12.4624 1.92978 15.5C1.92978 16.1106 2.0269 16.6979 2.20617 17.2467C2.28196 17.4787 2.31985 17.5947 2.33228 17.6739C2.34527 17.7567 2.34754 17.8031 2.34271 17.8867C2.33807 17.9668 2.31804 18.0573 2.27797 18.2383L1.66663 21L4.66143 20.591C4.82489 20.5687 4.90662 20.5575 4.97799 20.558C5.05315 20.5585 5.09303 20.5626 5.16673 20.5773C5.23673 20.5912 5.34079 20.6279 5.5489 20.7014C6.09722 20.8949 6.68573 21 7.2982 21Z" stroke="white" stroke-width="2" stroke-linecap="round" stroke-linejoin="round"/>
</svg>
