<svg width="23" height="22" viewBox="0 0 23 22" fill="none" xmlns="http://www.w3.org/2000/svg">
<path d="M21.6666 11C21.6666 16.5228 17.1895 21 11.6666 21C6.14378 21 1.66663 16.5228 1.66663 11M21.6666 11C21.6666 5.47715 17.1895 1 11.6666 1M21.6666 11H19.1666M1.66663 11C1.66663 5.47715 6.14378 1 11.6666 1M1.66663 11H4.16663M11.6666 1V3.5M18.7451 4L13.1665 9.5M18.7451 18.0784L18.5412 17.8745C17.8493 17.1827 17.5034 16.8368 17.0998 16.5894C16.7419 16.3701 16.3517 16.2085 15.9435 16.1105C15.4832 16 14.994 16 14.0156 16L9.31758 16C8.33922 16 7.85004 16 7.3897 16.1106C6.98155 16.2086 6.59138 16.3702 6.23349 16.5895C5.82982 16.8369 5.48392 17.1828 4.79212 17.8746L4.58826 18.0784M4.58826 4L6.32471 5.73645M13.6666 11C13.6666 12.1046 12.7712 13 11.6666 13C10.5621 13 9.66663 12.1046 9.66663 11C9.66663 9.89543 10.5621 9 11.6666 9C12.7712 9 13.6666 9.89543 13.6666 11Z" stroke="white" stroke-width="1.5" stroke-linecap="round" stroke-linejoin="round"/>
</svg>
