<svg width="21" height="20" viewBox="0 0 21 20" fill="none" xmlns="http://www.w3.org/2000/svg">
<g clip-path="url(#clip0_300_12)">
<path d="M9.70497 1.60996C9.87576 1.19932 10.4575 1.19932 10.6283 1.60996L12.6944 6.57744C12.7664 6.75056 12.9292 6.86885 13.1161 6.88383L18.4789 7.31376C18.9222 7.3493 19.102 7.90256 18.7642 8.19189L14.6783 11.6919C14.5359 11.8139 14.4737 12.0053 14.5172 12.1876L15.7655 17.4208C15.8687 17.8534 15.3981 18.1954 15.0186 17.9635L10.4273 15.1592C10.2672 15.0615 10.066 15.0615 9.906 15.1592L5.31468 17.9635C4.93514 18.1954 4.46451 17.8534 4.5677 17.4208L5.81601 12.1876C5.85952 12.0053 5.79733 11.8139 5.65493 11.6919L1.56904 8.19189C1.23127 7.90256 1.41103 7.3493 1.85436 7.31376L7.21717 6.88383C7.40407 6.86885 7.56687 6.75056 7.63887 6.57744L9.70497 1.60996Z" fill="#137BD8"/>
</g>
<defs>
<clipPath id="clip0_300_12">
<rect width="20" height="20" fill="white" transform="translate(0.166626)"/>
</clipPath>
</defs>
</svg>
