<svg width="23" height="20" viewBox="0 0 23 20" fill="none" xmlns="http://www.w3.org/2000/svg">
<path d="M15.6666 1.69432C17.1483 2.43067 18.1666 3.9597 18.1666 5.72656C18.1666 7.49342 17.1483 9.02245 15.6666 9.7588M17.6666 14.993C19.1781 15.6769 20.5391 16.7915 21.6666 18.2266M1.66663 18.2266C3.61312 15.7491 6.25581 14.2266 9.16663 14.2266C12.0774 14.2266 14.7201 15.7491 16.6666 18.2266M13.6666 5.72656C13.6666 8.21184 11.6519 10.2266 9.16663 10.2266C6.68134 10.2266 4.66663 8.21184 4.66663 5.72656C4.66663 3.24128 6.68134 1.22656 9.16663 1.22656C11.6519 1.22656 13.6666 3.24128 13.6666 5.72656Z" stroke="white" stroke-width="2" stroke-linecap="round" stroke-linejoin="round"/>
</svg>
